<svg xmlns="http://www.w3.org/2000/svg" width="81.413" height="25.163" viewBox="0 0 81.413 25.163"><g transform="translate(-0.004 -45.87)"><path d="M195.672,49.45h6.269a.762.762,0,0,1,.762.762V64.03a8.331,8.331,0,0,0,.134,1.631,2.485,2.485,0,0,0,.471,1.07,1.855,1.855,0,0,0,.94.6,5.4,5.4,0,0,0,1.547.178,5.208,5.208,0,0,0,1.527-.178,1.963,1.963,0,0,0,.942-.6,2.4,2.4,0,0,0,.487-1.07,8.33,8.33,0,0,0,.134-1.631V50.212a.762.762,0,0,1,.762-.762h6.269a.762.762,0,0,1,.764.762V64.03a15.889,15.889,0,0,1-.589,4.655,6.674,6.674,0,0,1-1.9,3.072,7.774,7.774,0,0,1-3.376,1.7,24.477,24.477,0,0,1-10.046,0,7.8,7.8,0,0,1-3.376-1.7,6.66,6.66,0,0,1-1.9-3.072,15.9,15.9,0,0,1-.589-4.655V50.212a.764.764,0,0,1,.764-.762" transform="translate(-160.133 -2.941)" fill="#fff"/><path d="M406.336,50.243a4.373,4.373,0,1,1-4.373-4.373,4.373,4.373,0,0,1,4.373,4.373" transform="translate(-326.653)" fill="#55b030"/><path d="M349.564,72.19l-14.715-22.4a.762.762,0,0,0-.637-.343h-6.919a.762.762,0,0,0-.637,1.179l7.106,10.815L326.7,72.19a.762.762,0,0,0,.637,1.179h6.919a.762.762,0,0,0,.637-.343l3.24-4.924,3.238,4.929a.762.762,0,0,0,.637.343h6.917a.762.762,0,0,0,.639-1.179" transform="translate(-268.272 -2.941)" fill="#fff"/><path d="M20.342,50.066l2.871,14.808L25.5,50.1a.76.76,0,0,1,.753-.644H32.26a.76.76,0,0,1,.749.935l-5.386,22.4a.762.762,0,0,1-.74.583h-7.1a.76.76,0,0,1-.748-.614L16.631,60.5,14.3,72.752a.762.762,0,0,1-.748.617H6.144a.762.762,0,0,1-.74-.583L.024,50.388a.762.762,0,0,1,.74-.938h6.48A.76.76,0,0,1,8,50.094l2.285,14.742L13.12,50.067a.758.758,0,0,1,.746-.617H19.6a.76.76,0,0,1,.744.616" transform="translate(0 -2.941)" fill="#fff"/></g></svg>